<?xml version="1.0" encoding="UTF-8"?>
<svg version="1.1" xmlns="http://www.w3.org/2000/svg" width="170" height="169" viewBox="0 0 170.00 168.76">
<path fill="#CCCCCC" fill-rule="evenodd" d="M71.51 0.10 L69.95 1.15 L65.61 1.27 L63.75 2.39 L61.42 2.64 L60.03 3.63 L56.61 3.82 L50.26 7.29 L47.62 7.67 L45.45 9.70 L41.41 11.39 L39.24 13.42 L37.49 14.11 L37.13 19.08 L35.76 21.87 L34.28 23.21 L30.56 20.08 L29.01 20.08 L20.08 29.01 L19.95 31.49 L21.80 33.66 L21.80 34.59 L20.32 35.89 L15.36 36.25 L14.66 38.00 L12.64 40.17 L12.18 41.72 L10.15 43.90 L8.84 46.53 L8.59 48.86 L6.36 52.74 L4.87 58.79 L3.82 60.34 L3.63 62.51 L2.58 64.06 L2.39 67.47 L1.34 69.02 L1.21 80.81 L0.10 82.67 L0.01 85.47 L1.21 87.95 L1.27 99.43 L2.39 101.29 L2.58 104.70 L3.63 106.25 L3.82 108.42 L4.87 109.97 L5.06 113.39 L7.29 117.26 L7.54 119.59 L8.91 122.38 L10.94 124.55 L12.64 128.59 L14.43 129.87 L15.36 127.97 L18.39 124.86 L18.58 122.69 L13.88 113.70 L13.49 111.06 L11.26 107.18 L11.07 103.77 L9.96 101.91 L9.83 97.56 L8.72 95.70 L8.72 73.06 L9.83 71.20 L10.02 66.54 L11.07 64.99 L11.26 61.58 L12.31 60.03 L12.56 57.70 L20.08 42.66 L22.11 40.48 L22.56 38.93 L23.73 37.67 L28.39 34.30 L35.52 27.14 L36.21 25.28 L39.86 21.56 L41.72 20.87 L43.90 18.84 L56.46 12.56 L58.94 12.25 L62.82 10.02 L66.23 9.83 L67.78 8.78 L72.13 8.65 L74.61 7.45 L96.94 7.48 L98.80 8.59 L103.46 8.78 L105.01 9.83 L107.18 10.02 L108.73 11.07 L114.63 12.50 L124.24 17.37 L126.10 17.15 L129.21 14.11 L131.11 13.18 L129.83 11.39 L117.42 5.19 L114.94 4.87 L113.39 3.82 L111.21 3.63 L109.66 2.58 L107.49 2.39 L105.94 1.34 L101.60 1.21 L99.11 0.01 L71.82 0.03Z M134.79 17.47 L100.67 51.50 L100.54 58.48 L101.98 61.58 L107.18 66.78 L109.97 68.15 L112.14 68.34 L113.54 69.33 L114.63 69.39 L116.18 68.34 L118.97 67.79 L151.23 35.36 L151.48 33.04 L152.59 30.87 L149.68 23.74 L145.03 19.07 L142.08 17.53 L135.10 17.41Z M102.53 27.39 L100.98 28.44 L97.56 28.64 L96.01 29.69 L93.69 29.94 L91.05 31.25 L88.88 33.28 L87.02 33.96 L63.75 57.24 L63.32 60.96 L64.49 63.13 L64.62 67.47 L66.54 70.34 L67.78 69.58 L71.20 69.39 L74.30 67.79 L96.94 45.13 L99.11 44.21 L113.70 29.62 L114.06 28.07 L113.07 27.33 L102.84 27.33Z M44.21 32.41 L43.97 33.35 L45.69 35.21 L46.38 37.07 L49.41 40.17 L49.86 41.72 L51.89 43.90 L52.34 45.45 L55.37 47.97 L60.65 37.85 L60.90 35.52 L61.95 33.97 L61.78 32.73 L60.34 32.26 L44.52 32.33Z M155.89 38.56 L151.85 42.35 L151.43 43.59 L157.50 55.37 L157.69 57.55 L158.68 58.94 L158.93 61.27 L159.98 62.82 L160.17 66.23 L161.22 67.78 L161.41 72.44 L162.52 74.30 L162.55 94.15 L161.35 96.63 L161.22 100.98 L160.17 102.53 L159.98 105.94 L158.93 107.49 L158.68 109.82 L156.51 113.54 L156.20 116.02 L152.40 123.62 L150.37 125.79 L149.92 127.34 L147.89 129.52 L147.20 131.37 L133.86 144.74 L128.59 148.68 L127.03 149.13 L124.86 151.16 L114.78 156.20 L108.73 157.69 L107.18 158.74 L105.01 158.93 L103.46 159.98 L97.87 160.11 L95.70 161.28 L74.61 161.31 L72.13 160.11 L67.78 159.98 L66.39 158.99 L64.06 158.74 L62.51 157.69 L58.94 157.44 L44.83 150.19 L43.59 150.61 L39.86 154.49 L39.93 155.89 L41.41 157.36 L53.98 163.64 L60.03 165.13 L61.58 166.18 L64.99 166.37 L66.54 167.42 L69.95 167.61 L71.51 168.66 L99.43 168.73 L101.29 167.61 L104.70 167.42 L106.25 166.37 L109.66 166.18 L111.21 165.13 L117.26 163.64 L129.83 157.36 L132.00 155.34 L133.86 154.65 L136.96 151.61 L138.82 150.93 L152.16 137.58 L152.85 135.72 L156.12 132.31 L156.58 130.76 L158.61 128.59 L164.88 116.02 L166.37 109.97 L167.42 108.42 L167.61 105.01 L168.66 103.46 L168.85 100.05 L169.97 98.18 L169.97 70.57 L168.85 68.71 L168.66 65.30 L167.61 63.75 L167.42 60.34 L166.37 58.79 L164.88 52.74 L158.61 40.17 L157.13 38.69 L156.20 38.51Z M35.52 54.70 L34.75 55.99 L34.97 61.58 L36.76 63.19 L40.17 63.19 L43.28 61.39 L43.20 57.55 L41.57 55.99 L38.00 55.74 L35.83 54.64Z M139.44 54.97 L135.72 58.48 L134.79 60.54 L132.93 61.26 L124.56 69.64 L123.62 71.82 L108.42 87.17 L108.71 87.95 L111.21 89.25 L115.87 89.44 L118.86 91.05 L119.09 94.46 L117.94 96.63 L118.66 97.63 L134.79 81.74 L135.48 79.88 L137.51 77.71 L138.75 75.23 L139.07 72.75 L140.12 71.20 L140.31 67.78 L141.45 65.61 L141.43 56.93 L139.75 54.97Z M52.58 68.64 L35.21 85.78 L34.52 87.64 L32.49 89.81 L32.04 92.60 L29.88 95.08 L29.69 98.49 L28.57 100.36 L28.55 111.52 L28.80 112.45 L29.63 112.88 L30.87 112.46 L44.52 98.83 L45.69 97.56 L46.38 95.70 L61.50 80.50 L61.58 79.82 L60.65 79.44 L57.86 79.50 L56.61 80.26 L55.99 79.91 L55.74 77.71 L54.63 75.85 L54.50 71.51 L52.89 68.67Z M97.56 98.12 L73.06 122.39 L70.89 123.31 L56.07 138.20 L55.94 139.44 L56.93 140.19 L67.16 140.19 L69.02 139.07 L72.44 138.88 L73.99 137.83 L76.31 137.58 L78.95 136.27 L81.12 134.24 L82.98 133.55 L107.73 108.73 L109.16 105.63 L108.94 100.98 L105.01 100.42 L103.46 99.37 L100.05 99.17 L97.87 98.07Z M52.89 99.37 L18.77 133.39 L18.65 140.37 L20.08 143.48 L25.28 148.68 L28.07 150.05 L30.25 150.24 L31.64 151.23 L32.73 151.29 L34.28 150.24 L37.07 149.69 L69.33 117.26 L69.58 114.94 L70.69 112.76 L67.78 105.63 L63.13 100.97 L60.18 99.43 L53.20 99.30Z M124.55 114.58 L123.93 117.26 L119.35 125.79 L119.03 128.28 L117.04 132.00 L118.04 132.71 L119.90 131.62 L123.31 131.44 L124.86 130.39 L130.76 128.96 L133.59 127.34 L131.76 124.86 L131.31 123.31 L129.28 121.14 L128.82 119.59 L126.80 117.42 L126.34 115.87 L124.86 114.56Z"/>
</svg>
